<svg id="Layer_1" data-name="Layer 1" xmlns="http://www.w3.org/2000/svg" viewBox="0 0 95.5 95.47"><defs><style>.cls-1{fill:#231f20;}</style></defs><path class="cls-1" d="M14,12V32h-2.5V12H9.09V9.66h7.23V12Z" transform="translate(-2.24 -2.24)"/><path class="cls-1" d="M21.6,19.58h2.63V9.66h2.49V32H24.23v-10H21.6V32H19.1V9.66h2.5Z" transform="translate(-2.24 -2.24)"/><path class="cls-1" d="M30.13,9.66h6.16v2.41H32.62v7.42h3.2V21.9h-3.2v7.71h3.72V32H30.13Z" transform="translate(-2.24 -2.24)"/><path class="cls-1" d="M47.8,70.26l1.56-1.56h4.09L55,70.26v4.18h-2.5V71.35L52,70.83H50.82l-.52.52V85.8l.52.53H52l.52-.53V80.4H51.26V78.16H55V86.9l-1.56,1.56H49.36L47.8,86.9Z" transform="translate(-2.24 -2.24)"/><path class="cls-1" d="M60.49,83.36,60,88.46H57.5L59.87,68.7h3.59l2.41,19.76H63.28l-.5-5.1Zm1.15-12.09-1,10H62.6Z" transform="translate(-2.24 -2.24)"/><path class="cls-1" d="M72.87,88.46l-2-15.5v15.5H68.66V68.7h3.61l1.85,16L76,68.7h3.7V88.46H77.29V73l-2,15.5Z" transform="translate(-2.24 -2.24)"/><path class="cls-1" d="M83.06,68.7h6.16v2.13H85.56v6.55h3.19v2.13H85.56v6.82h3.72v2.13H83.06Z" transform="translate(-2.24 -2.24)"/><path class="cls-1" d="M44.27,51.14V48.49H55.78v2.65Z" transform="translate(-2.24 -2.24)"/><path class="cls-1" d="M58.8,5.24V58.8H5.24V5.24H58.8m3-3H2.24V61.8H61.8V2.24Z" transform="translate(-2.24 -2.24)"/><path class="cls-1" d="M94.74,41.2V94.7H41.24V41.2h53.5m3-3H38.24V97.7h59.5V38.2Z" transform="translate(-2.24 -2.24)"/></svg>