<svg xmlns="http://www.w3.org/2000/svg" viewBox="0 0 116.5 117.01"><defs><style>.cls-1{fill:#fff;}</style></defs><g id="Layer_2" data-name="Layer 2"><g id="Layer_2-2" data-name="Layer 2"><path class="cls-1" d="M88.62,68.5H27.88L58.25,25.24Zm-60.14-.31H88L58.25,25.78Z"/><path class="cls-1" d="M83.05,74.6H33.44L58.25,39.26Zm-49.11-.26H82.56L58.25,39.7Z"/><path class="cls-1" d="M78.23,81h-40l20-28.47Zm-39.57-.21H77.84L58.25,52.88Z"/><path class="cls-1" d="M58.25,76.53,33.44,41.19H83.05ZM33.94,41.44,58.25,76.08,82.56,41.44Z"/><path class="cls-1" d="M58.25,63.27l-20-28.48h40ZM38.66,35,58.25,62.91,77.84,35Z"/><path class="cls-1" d="M58.25,91.73,27.88,48.46H88.62Zm-29.77-43L58.25,91.18,88,48.77Z"/><path class="cls-1" d="M58.25,92A33.53,33.53,0,1,1,91.77,58.51,33.56,33.56,0,0,1,58.25,92Zm0-65.95A32.43,32.43,0,1,0,90.68,58.51,32.46,32.46,0,0,0,58.25,26.08Z"/><path class="cls-1" d="M58.25,96.3A37.8,37.8,0,1,1,96,58.51,37.84,37.84,0,0,1,58.25,96.3Zm0-74.5A36.71,36.71,0,1,0,95,58.51,36.75,36.75,0,0,0,58.25,21.8Z"/><path class="cls-1" d="M105.59,31.06V41.93H103.5V13H72.76V10.91H83.63V0H32.33V10.91H43.2V13H12.46V42.47H9.82V31.61H0v50.2H9.82V71h2.09v33.61H43.2v1.55H32.33V117h51.3v-10.9H72.76V104H103.5V71.49h2.09V82.36H116.5V31.06Zm9.81,50.21h-8.72V70.4H102.4v32.52H71.67v4.28H82.53v8.72H33.42V107.2H44.29v-3.73H13V69.85H8.72V80.72H1.09v-48H8.72V43.57h4.82V14.07H44.3l-.22-.22.23.22,0-4.25H33.42V1.09H82.53V9.82H71.67v4.25H102.4V43h4.28V32.16h8.72Z"/></g></g></svg>